<svg aria-hidden="true" style="width:0;height:0;position:absolute;overflow:hidden" xmlns="http://www.w3.org/2000/svg"><defs><symbol id="icon-search" viewBox="0 0 32 32"><path d="m31.415 28.594-6.194-6.196c4.634-6.193 3.371-14.97-2.822-19.605S7.429-.578 2.794 5.615-.577 20.585 5.616 25.22a14.004 14.004 0 0 0 16.782 0l6.196 6.196a1.994 1.994 0 1 0 2.82-2.82v-.003zm-17.356-4.57c-5.504 0-9.966-4.462-9.966-9.966s4.462-9.966 9.966-9.966 9.966 4.462 9.966 9.966c-.006 5.502-4.464 9.96-9.966 9.966z"/></symbol><symbol id="icon-arrow-right1" viewBox="0 0 32 32"><path d="M0 0h32v32H0V0z"/><path d="M22.492 7.586 21.078 9l6 6H1v2h26.078l-6 6 1.414 1.414L30.906 16l-8.414-8.414z"/></symbol><symbol id="icon-arrow-left1" viewBox="0 0 32 32"><path d="M0 0h32v32H0V0z"/><path d="M31.083 15H5.005l6-6-1.414-1.414L1.177 16l8.414 8.414L11.005 23l-6-6h26.078v-2z"/></symbol></defs></svg>